<?xml version="1.0" encoding="UTF-8"?>
<svg viewBox="-2 -2 76 78" version="1.1" xmlns="http://www.w3.org/2000/svg" xmlns:xlink="http://www.w3.org/1999/xlink">
    <!-- Generator: sketchtool 51.2 (57519) - http://www.bohemiancoding.com/sketch -->
    <title>BC622E2D-2C49-40CA-BD4F-DA016C4E6A5F</title>
    <desc>Created with sketchtool.</desc>
    <defs>
        <radialGradient cx="86.8496638%" cy="30.0272996%" fx="86.8496638%" fy="30.0272996%" r="184.023158%" gradientTransform="translate(0.868497,0.300273),scale(1.000000,0.364177),rotate(2.545735),translate(-0.868497,-0.300273)" id="radialGradient-1">
            <stop stop-color="#FFEA00" offset="4.5%"></stop>
            <stop stop-color="#FFDE00" offset="12%"></stop>
            <stop stop-color="#FFBF00" offset="25.4%"></stop>
            <stop stop-color="#FF8E00" offset="42.9%"></stop>
            <stop stop-color="#FF272D" offset="76.9%"></stop>
            <stop stop-color="#E0255A" offset="87.2%"></stop>
            <stop stop-color="#CC2477" offset="95.3%"></stop>
            <stop stop-color="#C42482" offset="100%"></stop>
        </radialGradient>
        <radialGradient cx="70.8275826%" cy="12.3927561%" fx="70.8275826%" fy="12.3927561%" r="109.233694%" gradientTransform="translate(0.708276,0.123928),scale(1.000000,0.998246),translate(-0.708276,-0.123928)" id="radialGradient-2">
            <stop stop-color="#00CCDA" offset="0%"></stop>
            <stop stop-color="#0083FF" offset="22%"></stop>
            <stop stop-color="#007AF9" offset="26.1%"></stop>
            <stop stop-color="#0060E8" offset="33%"></stop>
            <stop stop-color="#005FE7" offset="33.3%"></stop>
            <stop stop-color="#2639AD" offset="43.8%"></stop>
            <stop stop-color="#401E84" offset="52.2%"></stop>
            <stop stop-color="#4A1475" offset="56.6%"></stop>
        </radialGradient>
        <linearGradient x1="57.3392895%" y1="75.2198361%" x2="35.1458962%" y2="6.80511416%" id="linearGradient-3">
            <stop stop-color="#000F43" stop-opacity="0.4" offset="0%"></stop>
            <stop stop-color="#001962" stop-opacity="0.173" offset="48.5%"></stop>
            <stop stop-color="#002079" stop-opacity="0" offset="100%"></stop>
        </linearGradient>
        <radialGradient cx="147.72731%" cy="-21.6638402%" fx="147.72731%" fy="-21.6638402%" r="172.422303%" gradientTransform="translate(1.477273,-0.216638),scale(0.920039,1.000000),rotate(5.741422),translate(-1.477273,0.216638)" id="radialGradient-4">
            <stop stop-color="#FFEA00" offset="0.3%"></stop>
            <stop stop-color="#FF272D" offset="49.7%"></stop>
            <stop stop-color="#C42482" offset="100%"></stop>
        </radialGradient>
        <radialGradient cx="135.976%" cy="-52.1307456%" fx="135.976%" fy="-52.1307456%" r="453.880244%" gradientTransform="translate(1.359760,-0.521307),scale(1.000000,0.543416),rotate(5.741422),translate(-1.359760,0.521307)" id="radialGradient-5">
            <stop stop-color="#FFE900" offset="0.3%"></stop>
            <stop stop-color="#FFAF0E" offset="15.7%"></stop>
            <stop stop-color="#FF7A1B" offset="31.6%"></stop>
            <stop stop-color="#FF4E26" offset="47.2%"></stop>
            <stop stop-color="#FF2C2E" offset="62.1%"></stop>
            <stop stop-color="#FF1434" offset="76.2%"></stop>
            <stop stop-color="#FF0538" offset="89.2%"></stop>
            <stop stop-color="#FF0039" offset="100%"></stop>
        </radialGradient>
        <radialGradient cx="211.883445%" cy="2.14494548%" fx="211.883445%" fy="2.14494548%" r="378.873532%" gradientTransform="translate(2.118834,0.021449),scale(0.531573,1.000000),rotate(5.741422),translate(-2.118834,-0.021449)" id="radialGradient-6">
            <stop stop-color="#FF272D" offset="0.3%"></stop>
            <stop stop-color="#C42482" offset="49.7%"></stop>
            <stop stop-color="#620700" offset="98.6%"></stop>
        </radialGradient>
        <radialGradient cx="71.1489488%" cy="46.4673106%" fx="71.1489488%" fy="46.4673106%" r="64.732106%" gradientTransform="translate(0.711489,0.464673),scale(1.000000,0.962895),translate(-0.711489,-0.464673)" id="radialGradient-7">
            <stop stop-color="#FFEA00" offset="0%"></stop>
            <stop stop-color="#FFDE00" offset="23.1%"></stop>
            <stop stop-color="#FFBF00" offset="36.5%"></stop>
            <stop stop-color="#FF8E00" offset="54.1%"></stop>
            <stop stop-color="#FF272D" offset="76.3%"></stop>
            <stop stop-color="#F92433" offset="80.3016618%"></stop>
            <stop stop-color="#E91C45" offset="88.97444%"></stop>
            <stop stop-color="#CF0E62" offset="100%"></stop>
        </radialGradient>
        <radialGradient cx="24.9534176%" cy="0.138231601%" fx="24.9534176%" fy="0.138231601%" r="249.815176%" gradientTransform="translate(0.249534,0.001382),scale(1.000000,0.397900),translate(-0.249534,-0.001382)" id="radialGradient-8">
            <stop stop-color="#FFEA00" offset="27.9%"></stop>
            <stop stop-color="#FFDD00" offset="40.2%"></stop>
            <stop stop-color="#FFBA00" offset="63%"></stop>
            <stop stop-color="#FF9100" offset="85.6%"></stop>
            <stop stop-color="#FF6711" offset="93.3%"></stop>
            <stop stop-color="#FF4A1D" offset="99.4%"></stop>
        </radialGradient>
        <linearGradient x1="-121.602561%" y1="64.455333%" x2="142.342359%" y2="29.6659057%" id="linearGradient-9">
            <stop stop-color="#C42482" stop-opacity="0.5" offset="0%"></stop>
            <stop stop-color="#FF272D" stop-opacity="0.5" offset="47.4%"></stop>
            <stop stop-color="#FF2C2C" stop-opacity="0.513" offset="48.6%"></stop>
            <stop stop-color="#FF7A1A" stop-opacity="0.72" offset="67.5%"></stop>
            <stop stop-color="#FFB20D" stop-opacity="0.871" offset="82.9%"></stop>
            <stop stop-color="#FFD605" stop-opacity="0.964" offset="94.2%"></stop>
            <stop stop-color="#FFE302" offset="100%"></stop>
        </linearGradient>
        <linearGradient x1="56.497619%" y1="94.8929888%" x2="19.4899942%" y2="5.47775928%" id="linearGradient-10">
            <stop stop-color="#891551" stop-opacity="0.6" offset="0%"></stop>
            <stop stop-color="#C42482" stop-opacity="0" offset="100%"></stop>
        </linearGradient>
        <linearGradient x1="8.03963742%" y1="6.68641317%" x2="47.9144739%" y2="47.8860609%" id="linearGradient-11">
            <stop stop-color="#891551" stop-opacity="0.5" offset="0.5%"></stop>
            <stop stop-color="#FF272D" stop-opacity="0.5" offset="48.4%"></stop>
            <stop stop-color="#FF272D" stop-opacity="0" offset="100%"></stop>
        </linearGradient>
        <linearGradient x1="47.5090137%" y1="102.675292%" x2="50.0086151%" y2="31.7488679%" id="linearGradient-12">
            <stop stop-color="#C42482" offset="0%"></stop>
            <stop stop-color="#C42482" stop-opacity="0.81" offset="8.3%"></stop>
            <stop stop-color="#C42482" stop-opacity="0.565" offset="20.6%"></stop>
            <stop stop-color="#C42482" stop-opacity="0.362" offset="32.8%"></stop>
            <stop stop-color="#C42482" stop-opacity="0.204" offset="44.7%"></stop>
            <stop stop-color="#C42482" stop-opacity="0.091" offset="56.2%"></stop>
            <stop stop-color="#C42482" stop-opacity="0.023" offset="67.3%"></stop>
            <stop stop-color="#C42482" stop-opacity="0" offset="77.3%"></stop>
        </linearGradient>
        <linearGradient x1="6.33406996%" y1="1.6470824%" x2="92.3513585%" y2="89.4608567%" id="linearGradient-13">
            <stop stop-color="#FFF14F" offset="0%"></stop>
            <stop stop-color="#FFEE4C" offset="26.8%"></stop>
            <stop stop-color="#FFE643" offset="45.2%"></stop>
            <stop stop-color="#FFD834" offset="61.2%"></stop>
            <stop stop-color="#FFC41E" offset="75.7%"></stop>
            <stop stop-color="#FFAB02" offset="89.2%"></stop>
            <stop stop-color="#FFA900" offset="90.2%"></stop>
            <stop stop-color="#FFA000" offset="94.9%"></stop>
            <stop stop-color="#FF9100" offset="100%"></stop>
        </linearGradient>
        <linearGradient x1="71.7885226%" y1="7.15860627%" x2="42.7455484%" y2="81.9478615%" id="linearGradient-14">
            <stop stop-color="#FF8E00" offset="0%"></stop>
            <stop stop-color="#FF8E00" stop-opacity="0.858" offset="4%"></stop>
            <stop stop-color="#FF8E00" stop-opacity="0.729" offset="8.4%"></stop>
            <stop stop-color="#FF8E00" stop-opacity="0.628" offset="13%"></stop>
            <stop stop-color="#FF8E00" stop-opacity="0.557" offset="17.8%"></stop>
            <stop stop-color="#FF8E00" stop-opacity="0.514" offset="22.7%"></stop>
            <stop stop-color="#FF8E00" stop-opacity="0.5" offset="28.2%"></stop>
            <stop stop-color="#FF8E00" stop-opacity="0.478" offset="38.9%"></stop>
            <stop stop-color="#FF8E00" stop-opacity="0.416" offset="52.4%"></stop>
            <stop stop-color="#FF8E00" stop-opacity="0.314" offset="67.6%"></stop>
            <stop stop-color="#FF8E00" stop-opacity="0.172" offset="83.8%"></stop>
            <stop stop-color="#FF8E00" stop-opacity="0" offset="100%"></stop>
        </linearGradient>
    </defs>
    <g id="992px" stroke="none" stroke-width="1" fill="none" fill-rule="evenodd">
        <g id="33-Popups-(Browser)" transform="translate(-608.000000, -385.000000)" fill-rule="nonzero">
            <g id="firefox-quantum-seeklogo.com" transform="translate(608.000000, 385.000000)">
                <path d="M58.134717,6.88545935 C56.3273962,8.98242683 55.4856604,13.7018069 57.3182642,18.4860122 C59.1508679,23.2702175 61.9597736,22.2311341 63.710717,27.1097947 C66.0218868,33.5471931 64.9461132,42.1947398 64.9461132,42.1947398 C64.9461132,42.1947398 67.7245283,50.2120833 69.6606792,41.6959167 C73.9461887,25.6999593 58.134717,10.8245305 58.134717,6.88545935 Z" id="Shape" fill="url(#radialGradient-1)"></path>
                <path d="M36.0809057,73.2959472 C54.589283,73.2959472 69.5827925,58.2749248 69.5827925,39.7531911 C69.5827925,21.2314573 54.589283,6.21051016 36.0988679,6.21051016 C17.6084528,6.21051016 2.61509434,21.2315325 2.61509434,39.7531911 C2.57924528,58.2928232 17.5904151,73.2959472 36.0809057,73.2959472 Z" id="_Path_" fill="url(#radialGradient-2)"></path>
                <path d="M61.1830189,60.4360407 C60.4588093,60.945144 59.6990691,61.402111 58.9095849,61.8034614 C59.9554061,60.2765393 60.9202497,58.6960838 61.8001509,57.0685894 C62.5141132,56.2812114 63.1681509,55.5157927 63.7011321,54.6881809 C63.9605283,54.2815569 64.2530566,53.7798008 64.562717,53.1977276 C66.4435472,49.8211016 68.517434,44.3566077 68.5762264,38.7436626 L68.5762264,38.730126 C68.5775849,38.5919776 68.5784151,38.4537541 68.577283,38.3153801 C68.5870168,36.9064401 68.4424635,35.5006467 68.1461887,34.1229492 C68.161283,34.230565 68.174566,34.3381057 68.1881509,34.4456463 C68.1714717,34.3629228 68.157434,34.2792967 68.1395472,34.1964228 C68.1671698,34.3493862 68.1893585,34.4972358 68.2132075,34.6463638 C68.5976604,37.8964228 68.3238491,41.0666159 66.9541887,43.4037825 C66.9326038,43.4379248 66.9104151,43.4698862 66.8886038,43.5032764 C67.5987925,39.951126 67.8363774,36.0290508 67.0461887,32.1024634 C67.0461887,32.1024634 66.7301887,30.1935793 64.3763019,24.3985671 C63.021434,21.0630772 60.6153208,18.3284614 58.4895094,16.336252 C56.6261132,14.0390935 54.9337358,12.497502 54.0008302,11.5187317 C52.0520755,9.47403049 51.2353208,7.94138821 50.8999245,6.94133537 C50.6091321,6.79604268 46.8897358,3.19568699 46.5942642,3.05851626 C44.9707925,5.56669512 39.8650566,13.412124 42.2938113,20.7422602 C43.3944906,24.0641382 46.1781132,27.5118313 49.0913208,29.4459837 C49.2192453,29.5915772 50.8248302,31.3292236 51.5883774,35.2484411 C52.3767547,39.2975346 51.9622642,42.4570488 50.3396226,47.1292764 C48.4312453,51.2282297 43.5421132,55.2804065 38.9642264,55.6949268 C29.1773585,56.5808963 25.5944906,50.7985935 25.5944906,50.7985935 C29.0915472,52.1917337 32.9581132,51.9003211 35.3095094,50.4559675 C37.6793208,48.9951443 39.1128302,47.9120671 40.2763019,48.3391463 C41.4234717,48.7642703 42.3366792,47.5302602 41.5172075,46.2509776 C40.2235368,44.2655127 37.8647228,43.2420719 35.5247547,43.6509756 C33.1524528,44.035189 30.9793962,45.90775 27.8710189,44.0942236 C27.6698374,43.9778957 27.4751131,43.8508174 27.2876981,43.7135447 C27.0827925,43.5793069 27.9538113,43.917872 27.750566,43.7652846 C27.1456604,43.4378496 26.0750943,42.7243211 25.7973585,42.4705102 C25.7510943,42.4282459 26.266717,42.634378 26.2204528,42.5920386 C23.3140377,40.2071931 23.6770566,38.596189 23.7683774,37.5857581 C23.8415094,36.7773984 24.369434,35.7415488 25.2590189,35.3213882 C25.6886792,35.5550447 25.9563774,35.7334268 25.9563774,35.7334268 C25.9563774,35.7334268 25.7731321,35.3603435 25.6740377,35.163687 C25.7087547,35.1486463 25.7419623,35.1526321 25.7765283,35.1379675 C26.1285283,35.30725 26.9068679,35.7471138 27.3166792,36.0153638 C27.8504151,36.3904776 28.0205283,36.7249817 28.0205283,36.7249817 C28.0205283,36.7249817 28.1610566,36.6478984 28.0571321,36.3207642 C28.0193962,36.1866016 27.8573585,35.7602744 27.3286792,35.3300366 L27.3617358,35.3337215 C27.6781645,35.5133769 27.9778915,35.720781 28.2573585,35.9534715 C28.4064151,35.413437 28.6744906,34.849563 28.6155472,33.8408618 C28.5795472,33.1316199 28.5961509,32.9479736 28.470717,32.6740833 C28.3584151,32.4388476 28.5336604,32.3470996 28.7286792,32.5913598 C28.6952995,32.3999713 28.6393654,32.2131777 28.5620377,32.0348557 L28.5636981,32.0165061 C28.8070943,31.1715224 33.7144906,28.9737073 34.0716981,28.716813 C34.6586027,28.3030173 35.1507422,27.7698743 35.5156226,27.1525854 C35.7886038,26.719189 35.9938868,26.1111707 36.0439245,25.188878 C36.070717,24.5237805 35.7602264,24.0808333 30.7981132,23.5631341 C29.4410566,23.4299492 28.6448302,22.450126 28.1923774,21.5459573 C28.1098113,21.3511809 28.0256604,21.1746789 27.941434,20.9983272 C27.8610419,20.7921641 27.7965036,20.5802065 27.7483774,20.3642886 C28.5596226,18.0425386 29.922717,16.0794329 31.9270189,14.5961992 C32.0362264,14.4970813 31.4906415,14.6216179 31.5997736,14.5225 C31.7270943,14.4068374 32.558717,14.0730102 32.7157736,13.9978069 C32.9076226,13.907563 31.8944906,13.4789045 31.0001509,13.5832866 C30.089283,13.685563 29.8958491,13.7938557 29.4097358,13.9992358 C29.6114717,13.7991199 30.2529811,13.536811 30.102566,13.5385407 C29.1206038,13.6885711 27.9003774,14.2573333 26.857283,14.9015244 C26.8552506,14.7893498 26.8767136,14.6779853 26.9203019,14.5745407 C26.4341887,14.7799959 25.2403019,15.6114431 24.8927547,16.3148943 C24.9077324,16.1800615 24.9144367,16.0444435 24.9128302,15.9087967 C24.5425139,16.2165459 24.2084283,16.5651608 23.9169811,16.9479553 L23.8987925,16.9644248 C21.0793208,15.8326159 18.5981887,15.7593679 16.498566,16.2668394 C16.0392453,15.8071972 15.8148679,16.1432053 14.7697358,13.8551463 C14.698717,13.717374 14.8242264,13.991189 14.7697358,13.8551463 C14.5978113,13.4114472 14.874566,14.4471463 14.7697358,13.8551463 C13.0124528,15.2367805 10.7003019,16.8025874 9.59041509,17.9078496 C9.57667925,17.9519187 10.8852075,17.5393537 9.59041509,17.9078496 C9.13698113,18.0368984 9.16777358,18.304998 9.09886792,20.7279715 C9.08226415,20.9116931 9.09698113,21.1174492 9.08203774,21.2828211 C8.19539623,22.4084634 7.59154717,23.3616646 7.36316981,23.8555996 C6.2165283,25.8244207 4.95366038,28.8936159 3.72950943,33.7486626 C4.2694616,32.4326778 4.92044852,31.1646942 5.6754717,29.9583435 C4.65750943,32.5353333 3.67343396,36.5820955 3.47667925,42.8139634 C3.72293049,41.527993 4.0386857,40.2562095 4.42256604,39.0041667 C4.18224441,44.1743542 5.07701912,49.3345268 7.04445283,54.1246077 C7.7485283,55.8408211 8.91313208,58.4454106 10.8956981,61.298998 C17.1246038,67.8295732 25.9104151,71.8951362 35.6392453,71.8951362 C45.7956226,71.8952114 54.9158491,67.4673191 61.1830189,60.4360407 Z" id="Shape" fill="url(#linearGradient-3)"></path>
                <path d="M53.6679245,65.1792602 C65.96,63.7609268 71.401434,51.138813 64.4136604,50.8906423 C58.1017358,50.689624 47.8455849,65.8485691 53.6679245,65.1792602 Z" id="Shape" fill="url(#radialGradient-4)"></path>
                <path d="M65.2986415,48.312374 C73.7556981,43.4080691 71.5506415,32.8144878 71.5506415,32.8144878 C71.5506415,32.8144878 68.2867925,36.5925488 66.0695094,42.6149756 C63.8792453,48.5785183 60.2141132,51.2744797 65.2986415,48.312374 Z" id="Shape" fill="url(#radialGradient-5)"></path>
                <path d="M38.4508679,71.447752 C50.2415849,75.1967093 60.3753962,65.9413699 54.1288302,62.8505163 C48.4495094,60.0630325 32.8546415,69.675061 38.4508679,71.447752 Z" id="Shape" fill="url(#radialGradient-6)"></path>
                <path d="M66.177283,52.8102805 C66.4640755,52.4069654 66.852,51.1155752 67.1946415,50.538315 C69.2763019,47.1900407 69.2910189,44.5203252 69.2910189,44.459185 C70.5483019,38.2008455 70.4342642,35.6453638 69.6608302,30.9193659 C69.0381132,27.1140813 66.3157736,21.6624472 63.957434,19.037252 C61.5272453,16.3325671 63.2393962,17.2137988 60.8863396,15.2381341 C58.8239245,12.960002 56.8242264,10.7040549 55.7351698,9.79680285 C47.865283,3.24080894 48.0430943,1.84827033 48.1946415,1.61085366 C48.1690566,1.63875407 48.1314717,1.68019106 48.0835472,1.7344126 C47.9903396,1.36418699 47.9245283,1.05284553 47.9245283,1.05284553 C47.9245283,1.05284553 43.6226415,5.33943089 42.7169811,12.4837398 C42.1257358,17.1479207 43.8779623,22.010187 46.4150943,25.1178862 C47.7362388,26.7284167 49.2292992,28.1909503 50.8679245,29.4796748 L50.8679245,29.4777195 C52.7849057,32.2209085 53.84,35.6059573 53.84,39.2472988 C53.84,48.3652419 46.4180377,55.7567439 37.2624906,55.7567439 C36.0147068,55.7573883 34.7708102,55.618164 33.5542642,55.3416972 C29.234566,54.5213801 26.7400755,52.3500366 25.496,50.8759776 C24.7830189,50.0311443 24.4798491,49.4153049 24.4798491,49.4153049 C28.3502642,50.7968638 32.6297358,50.5078577 35.2321509,49.0755366 C37.854717,47.6267459 39.4415094,46.5527683 40.729283,46.9762378 C41.998717,47.3978272 43.0093585,46.1740447 42.1028679,44.9054411 C41.2144906,43.6386423 38.9028679,41.8243638 35.470566,42.3270224 C32.8449811,42.7080772 30.4398491,44.5650711 26.9996226,42.7665854 C26.7780636,42.651877 26.562583,42.5258698 26.3540377,42.389065 C26.1272453,42.2558801 27.0912453,42.5917378 26.8662642,42.4403537 C26.1968302,42.115626 25.0116981,41.4079634 24.7045283,41.1563333 C24.653283,41.1144451 25.224,41.3188476 25.1724528,41.2766585 C21.9557736,38.9115915 22.3573585,37.3139736 22.458566,36.3118902 C22.5395472,35.5102236 23.1237736,34.4829472 24.1083019,34.0663211 C24.5837736,34.2980224 24.8800755,34.4749004 24.8800755,34.4749004 C24.8800755,34.4749004 24.6772075,34.1049004 24.5675472,33.9098984 C24.6059623,33.8953089 24.642566,33.8989939 24.6807547,33.8844045 C25.0703396,34.0522581 25.9317736,34.4882114 26.3853585,34.7545061 C26.9760755,35.1265366 27.1643774,35.4582581 27.1643774,35.4582581 C27.1643774,35.4582581 27.3199245,35.3818516 27.2048302,35.0574248 C27.1627925,34.9243902 26.9837736,34.5015976 26.3986415,34.0748943 L26.4352453,34.0785793 C26.7825961,34.2550044 27.114213,34.4606283 27.4264906,34.6932154 C27.5914717,34.1576931 27.8882264,33.5984817 27.8229434,32.598128 C27.7830943,31.8948272 27.8015094,31.7126098 27.6626415,31.4410508 C27.5383396,31.2079207 27.7323774,31.1167744 27.9480755,31.3592297 C27.910745,31.1680019 27.8487463,30.9823893 27.7636226,30.8070122 L27.7655094,30.788813 C28.0349434,29.9508232 33.4662642,27.7712825 33.8615849,27.5164939 C34.4986125,27.1180457 35.0433568,26.5892097 35.4596981,25.9650508 C35.7615849,25.5352642 35.9890566,24.9322846 36.0444528,24.0176626 C36.0630189,23.6055488 35.9356981,23.2793923 34.497283,22.9674492 C33.6339623,22.7801931 32.2983396,22.5979756 30.2381887,22.4053801 C28.7363019,22.2733232 27.8550189,21.3016972 27.3542642,20.4049736 C27.2628679,20.2117764 27.1697358,20.0364776 27.0765283,19.8618557 C26.9879246,19.6585597 26.9164577,19.4482673 26.8628679,19.2331565 C27.7615893,16.888768 29.3801072,14.8869168 31.4876981,13.5129715 C31.6084528,13.4146057 31.0046792,13.5381646 31.125434,13.439874 C31.2664151,13.325189 32.1867925,12.9941443 32.3606792,12.9195427 C32.5729811,12.8303516 31.4516981,12.4051524 30.4618868,12.5084817 C29.4538113,12.6099309 29.2396981,12.7172459 28.7016604,12.9210467 C28.9249811,12.7225854 29.6349434,12.4623069 29.4685283,12.464187 C28.3817358,12.612939 27.0307925,13.1770386 25.8760755,13.815815 C25.8739616,13.7038152 25.8978267,13.5928412 25.9458113,13.4915386 C25.4077736,13.6952642 24.0864151,14.5198679 23.7017358,15.2174533 C23.718279,15.0838965 23.7256923,14.9493737 23.7239245,14.814815 C23.3187748,15.1156941 22.9491238,15.4613246 22.6220377,15.8450996 L22.6018868,15.8614939 C19.4813585,14.7390854 16.7353208,14.666439 14.4115472,15.169624 C13.9031698,14.7138171 13.0858113,14.0245793 11.9291321,11.7553963 C11.850566,11.618752 11.8083774,12.0377846 11.748,11.9028699 C11.298566,10.8640874 11.0270189,9.1621626 11.0716226,7.98884146 C11.0716226,7.98884146 10.1419623,8.41103252 9.3725283,10.174248 C9.22966038,10.4912297 9.13803774,10.6660772 9.04649057,10.8409248 C9.00437736,10.8919126 9.14196226,10.2618598 9.12,10.2961524 C8.98626415,10.5217622 8.64030189,10.8370142 8.48822642,11.2450671 C8.38377358,11.5474593 8.23728302,11.7168171 8.14377358,12.0939614 L8.12181132,12.1285549 C8.11426415,12.0174045 8.14950943,11.6712439 8.12384906,11.7422358 C7.76319731,12.4682905 7.45283692,13.2180892 7.1949434,13.986376 C6.78067925,15.3434939 6.29841509,17.1907866 6.22196226,19.5939065 C6.20354717,19.776124 6.21992453,19.9801504 6.20332075,20.1441687 C5.22218868,21.2604858 4.55366038,22.2057154 4.30090566,22.6956646 C3.03245283,24.6487683 1.63471698,27.6925447 0.279773585,32.5072825 C0.882602948,31.1920831 1.60347136,29.9338549 2.43358491,28.7479472 C1.30686792,31.3035793 0.217735849,35.3168008 0,41.4971545 C0.273496493,40.2181812 0.623094938,38.9565496 1.0469434,37.7189431 C0.852377358,41.8400813 1.33411321,46.9493902 3.94875472,52.7139451 C5.50120755,56.1046341 9.07486792,62.9903943 17.8068679,68.3637419 L17.8061132,68.3642683 C17.8061132,68.3642683 20.7766792,70.5677236 25.8828679,72.2191118 C26.2602264,72.3555305 26.6424906,72.4898435 27.0326038,72.6201707 C26.9101887,72.5709126 26.7917736,72.5190976 26.6767547,72.4658537 C30.0754801,73.480541 33.6042297,73.9973309 37.1522264,74 C50.3733585,74.0112053 54.2726792,68.7207317 54.2726792,68.7207317 C54.2726792,68.7207317 54.2589434,68.7310346 54.2339623,68.7490833 C54.4205283,68.5740603 54.6002264,68.3921436 54.7730566,68.2033333 C52.6870943,70.1661382 47.9266415,70.2963902 46.1466415,70.1547825 C49.1823396,69.2664065 51.1799245,68.5149004 55.0655094,67.0324187 C55.5202013,66.8644648 55.9851572,66.6729472 56.4603774,66.4578659 C56.5117736,66.4353049 56.5636226,66.4108638 56.6152453,66.3874756 C56.7095094,66.3437073 56.8028679,66.3023455 56.8980377,66.2563211 C58.7911742,65.3673706 60.5713108,64.2568934 62.2008302,62.9483557 C66.102717,59.8424614 66.9516981,56.8150041 67.3954717,54.8188841 C67.3335849,55.0102012 67.1407547,55.4562317 67.005283,55.7450874 C66.0003774,57.8870264 63.772,59.2013537 61.3518491,60.3285752 C62.5034931,58.8229045 63.5714594,57.2554741 64.5509434,55.6333354 C65.3409057,54.8525 65.5873962,53.6310488 66.177283,52.8102805 Z" id="Shape" fill="url(#radialGradient-7)"></path>
                <path d="M61.428,60.2364512 C63.0189434,58.4886524 64.4476226,56.4895244 65.5298113,54.2225976 C68.314717,48.3881789 72.6205283,38.6871098 69.229283,28.5552764 C66.5490566,20.5474085 62.8691321,16.1686992 58.1967547,11.8912886 C50.6085283,4.94506504 48.4892075,1.84405894 48.4892075,0 C48.4892075,0 39.7277736,9.73197764 43.5275472,19.882311 C47.3273208,30.0326443 55.109434,29.6605386 60.2580377,40.2529167 C66.3165283,52.7174797 55.3562264,66.3194167 46.2924528,70.1265061 C46.8473962,70.0036992 66.4411321,65.5855081 67.4708679,54.4179004 C67.4475472,54.6232805 67.0060377,57.7120285 61.428,60.2364512 Z" id="Shape" fill="url(#radialGradient-8)"></path>
                <path d="M36.0446792,24.0178882 C36.0743396,23.3583557 35.7310189,22.9154085 30.2573585,22.4038008 C28.0053585,22.1966159 27.1430189,20.1225854 26.8801509,19.2497012 C26.0793962,21.3226789 25.7487547,23.4979329 25.9264906,26.1290691 C26.048,27.8527276 27.2101887,29.7028028 27.7657358,30.7890386 C27.7657358,30.7890386 27.8892075,30.6291565 27.9461887,30.5700467 C28.9923019,29.4847886 33.3753208,27.8312195 33.7870943,27.596435 C34.2409811,27.3107378 35.9684528,26.0530386 36.0446792,24.0178882 Z" id="Shape" fill="url(#linearGradient-9)"></path>
                <path d="M11.9482264,11.767128 C11.8696604,11.6304085 11.8274717,12.0494411 11.7670943,11.9146016 C11.3176604,10.8758191 11.0442264,9.1922439 11.1089811,8.00237805 C11.1089811,8.00237805 10.1793208,8.42456911 9.40988679,10.1877846 C9.26701887,10.5047663 9.17539623,10.6796138 9.08384906,10.8544614 C9.04173585,10.9054492 9.17932075,10.2753963 9.15735849,10.309689 C9.02369811,10.5352988 8.67773585,10.8505508 8.5274717,11.2403293 C8.40286792,11.5591159 8.27471698,11.7302785 8.17932075,12.125622 C8.14996226,12.2330874 8.20890566,11.6501118 8.18324528,11.7211037 C6.39373585,15.1672927 6.05215094,20.3780508 6.24075472,20.1577053 C10.0504151,16.10425 14.4162264,15.1429268 14.4162264,15.1429268 C13.9516981,14.8019553 12.9424151,13.8174695 11.9483019,11.767128 L11.9482264,11.767128 Z" id="Shape" fill="url(#linearGradient-10)"></path>
                <path d="M26.4033208,54.1538618 C21.1411321,51.9151362 15.1586415,48.7576524 15.3844528,41.5845407 C15.692,32.1375833 24.2255849,34.0047297 24.2255849,34.0047297 C23.9035472,34.0828659 23.042566,34.6937419 22.737434,35.3448516 C22.4149434,36.1590772 21.826566,37.9977215 23.6092075,39.9247297 C26.4083774,42.9472988 17.8582642,47.095811 31.0554717,54.9328171 C31.3883019,55.1133049 27.9618113,54.8252764 26.4034717,54.1538618 L26.4033208,54.1538618 Z" id="Shape" fill="url(#linearGradient-11)"></path>
                <path d="M24.5338868,49.4461382 C28.2653585,50.7401606 32.6123774,50.5131972 35.2148679,49.0808008 C36.9571321,48.1143638 39.1922264,46.5664553 40.5674717,46.948563 C39.3767547,46.4795955 38.4749434,46.2604533 37.3901132,46.2069085 C37.2053585,46.2069085 36.9839245,46.202998 36.782717,46.1828435 C36.3853889,46.1815617 35.9883204,46.2032315 35.5935094,46.2477439 C34.9218113,46.3092602 34.1772075,46.7315264 33.5003019,46.6637683 C33.4636981,46.6600833 34.1569057,46.3799512 34.1005283,46.3926606 C33.7418868,46.467187 33.3522264,46.4832805 32.9405283,46.5341179 C32.6788679,46.5631463 32.4538113,46.5957846 32.1940377,46.6065386 C24.4218113,47.2632886 17.8531321,42.4092195 17.8531321,42.4092195 C17.2940377,44.2855407 20.3562264,47.9968211 24.5339623,49.4461382 L24.5338868,49.4461382 Z" id="Shape" fill="url(#linearGradient-12)"></path>
                <path d="M61.4141887,60.2863862 C69.2754717,52.5953496 73.2528302,43.2464573 71.5713962,32.7605671 C71.5713962,32.7605671 72.2430943,38.1375996 69.6960755,43.637063 C70.9196981,38.2680772 71.0621132,31.5959695 67.8111698,24.6867459 C63.4720755,15.4644959 56.3358491,10.6118557 53.6113962,8.58738415 C49.4834717,5.5199187 47.7723019,2.39672764 47.741434,1.75223577 C46.5083019,4.26981504 42.7779623,12.8973577 47.3406792,20.327439 C51.6153962,27.2885528 58.3493585,29.3547622 63.0635472,35.7401199 C71.7484528,47.5034126 61.4141887,60.2863862 61.4141887,60.2863862 Z" id="Shape" fill="url(#linearGradient-13)"></path>
                <path d="M60.2878491,40.2751768 C57.5405283,34.6198171 54.1115472,32.1531504 50.8679245,29.4796748 C51.245283,30.0060976 51.3382642,30.1920752 51.5471698,30.5325203 C54.4020377,33.5644146 58.6118491,40.9599024 55.5554717,50.2438191 C49.8023396,67.7191748 26.7899623,59.4900589 24.3773585,57.1784614 C25.3533585,67.2924715 42.3423396,72.132252 53.4037736,65.5734004 C59.6981132,59.6361789 64.7900377,49.543 60.2878491,40.2751768 Z" id="Shape" fill="url(#linearGradient-14)"></path>
            </g>
        </g>
    </g>
</svg>